<?xml version="1.0" encoding="UTF-8"?><svg id="Layer_1" xmlns="http://www.w3.org/2000/svg" viewBox="0 0 112.98 126.73"><defs><style>.cls-1{fill:#39b54a;}</style></defs><path class="cls-1" d="M19,126.73c-5.3,0-9.66-1.31-12.98-3.89-3.88-3.03-6.02-7.62-6.02-12.93,0-2.79,0-5.95,15.53-37.17,8.67-17.42,16.44-33.94,23.14-49.15-4.03-5.07-3.66-12.48,.96-17.15,1.31-1.32,2.57-2.39,3.86-3.28,3.05-2.1,6.32-3.17,9.73-3.17s8.8,1.37,13.55,7.87c2.49,3.41,5.16,8.67,8.17,16.09,2.37,5.81,5.65,13.95,9.72,24.19,14.84,37.33,22.24,50.97,25.83,55.84,3.99,5.41,3.1,13.07-2.02,17.44-1.33,1.13-2.61,2.04-3.92,2.78-3.38,1.9-6.71,2.16-9.52,2.16-9.88,0-17.29-9.09-25.58-31.38-.42-1.09-.81-2.12-1.17-3.09h-28.64c-2.6,5.89-4.48,10.68-5.62,14.26-1.29,4.06-1.94,7.44-1.94,10.05v.28l-.56,8.89-7.36,.96c-1.41,.18-2.44,.29-3.23,.33-.71,.03-1.34,.05-1.92,.05ZM57.37,63.61c-.8-2.05-1.6-4.06-2.39-6.03-.91,2.14-1.77,4.15-2.57,6.03h4.96Z"/><path d="M71.79,82.92c-7.46,0-28.25,0-35.47,0-1.54,0-2.93,.91-3.56,2.31-3.45,7.63-5.89,13.7-7.33,18.22-1.58,4.96-2.37,9.22-2.37,12.78l-.08,1.2c-1.15,.15-1.99,.24-2.52,.26-.53,.02-1.02,.04-1.47,.04-3.26,0-5.74-.66-7.44-1.99-1.7-1.33-2.56-3.27-2.56-5.83s4.86-13.61,14.59-33.16c9.33-18.75,17.53-36.24,24.6-52.46,.57-1.31,.38-2.82-.49-3.94-.39-.5-.79-.99-1.21-1.47-.21-.25-.43-.49-.65-.74-1.37-1.55-1.27-3.9,.18-5.37,.9-.91,1.76-1.64,2.57-2.2,1.53-1.05,3.07-1.58,4.62-1.58,2.15,0,4.25,1.39,6.28,4.17,2.03,2.78,4.4,7.51,7.11,14.17,2.36,5.77,5.59,13.81,9.7,24.14,12.26,30.82,21.24,50.11,26.94,57.85,1.21,1.64,.93,3.94-.62,5.26-.87,.74-1.7,1.33-2.49,1.78-1.6,.9-3.35,1-5.11,1-5.06,0-10.73-8.27-17.15-25.51-.95-2.5-1.76-4.64-2.44-6.42-.57-1.52-2.02-2.53-3.65-2.53Zm-13.11-40.06c-1.33-3.18-5.84-3.19-7.2-.02h0c-4.32,10.14-7.78,18.25-10.38,24.34-1.1,2.58,.79,5.44,3.6,5.44h20.08c2.74,0,4.63-2.75,3.65-5.31-1.89-4.98-3.78-9.81-5.67-14.51-1.36-3.38-2.72-6.69-4.08-9.94Z"/></svg>